<svg id="Capa_1" enable-background="new 0 0 511.083 511.083" height="512" viewBox="0 0 511.083 511.083" width="512" xmlns="http://www.w3.org/2000/svg"><path d="m511.083 187.707-255.542-127.295-255.541 127.295 32.541 17.378v154.054c-18.58 6.276-32 23.86-32 44.531 0 25.916 21.084 47 47 47s47-21.084 47-47c0-20.671-13.42-38.255-32-44.531v-138.033l50 26.702v108.856l143 76.371 143-76.371v-108.856zm-463.542 232.963c-9.374 0-17-7.626-17-17s7.626-17 17-17 17 7.626 17 17-7.626 17-17 17zm17.881-232.036 190.119-94.706 190.119 94.706c-160.262 85.587-17.91 9.561-190.119 101.531-35.984-19.218-154.143-82.32-190.119-101.531zm303.119 150.042-113 60.349-113-60.349v-74.847l113 60.346 113-60.346z"/></svg>